<svg width="50" height="40" viewBox="0 0 50 40" fill="none" xmlns="http://www.w3.org/2000/svg">
<path d="M3.30556 17.9528C2.89815 20.0303 2.89815 22.1079 3.30556 24.1854L7.48152 21.0196L3.30556 17.9528Z" fill="#63D1BB"/>
<path d="M27.852 5.586C22.9631 3.40951 17.2594 3.40951 12.2686 5.98172L19.9075 11.5219L27.852 5.586Z" fill="#63D1BB"/>
<path d="M37.528 17.062L32.6391 20.7225L37.6299 24.3829C38.1392 22.0086 38.1392 19.4364 37.528 17.062Z" fill="#63D1BB"/>
<path d="M12.3705 36.057C17.2594 38.5303 23.2687 38.7281 28.3613 36.1559L20.1113 30.1211L12.3705 36.057Z" fill="#63D1BB"/>
<path d="M11.0464 18.2488L4.73152 13.698C4.42596 14.3905 4.1204 15.083 3.9167 15.7756L9.31489 19.7328L11.0464 18.2488Z" fill="#63D1BB"/>
<path d="M21.9446 28.8349L30.3983 34.9686C30.7039 34.7707 31.0095 34.5729 31.2132 34.375C31.5187 34.1772 31.8243 33.8804 32.1298 33.5836L23.6761 27.4498L21.9446 28.8349Z" fill="#63D1BB"/>
<path d="M14.6112 15.5781L7.07412 10.1368C6.56486 10.6315 6.15745 11.2251 5.75003 11.8187L12.7779 16.9631L14.6112 15.5781Z" fill="#63D1BB"/>
<path d="M25.5094 26.1635L33.7595 32.1983C34.2688 31.7036 34.6762 31.11 35.0836 30.5165L27.2409 24.7784L25.5094 26.1635Z" fill="#63D1BB"/>
<path d="M18.176 12.907L10.3334 7.16895C10.1297 7.26788 9.92598 7.46574 9.72228 7.56467C9.31487 7.86146 8.90746 8.15826 8.6019 8.55398L16.4446 14.1931L18.176 12.907Z" fill="#63D1BB"/>
<path d="M29.0743 23.3936L36.204 28.538C36.5095 27.8455 36.8151 27.2519 37.1206 26.5594L30.9076 22.0085L29.0743 23.3936Z" fill="#63D1BB"/>
<path d="M29.8891 6.67419L3.9167 26.3615C4.1204 27.054 4.42596 27.7466 4.73152 28.4391L31.7225 7.9603C31.2132 7.46564 30.6021 7.06992 29.8891 6.67419Z" fill="#63D1BB"/>
<path d="M34.2688 10.5323C33.9632 10.1366 33.6576 9.74089 33.3521 9.44409L5.85186 30.2197C6.05557 30.7143 6.36113 31.11 6.66669 31.4068C6.76854 31.6047 6.97224 31.8026 7.0741 31.9015L34.778 11.1259C34.5743 10.9281 34.4725 10.7302 34.2688 10.5323Z" fill="#63D1BB"/>
<path d="M35.8984 12.9067L8.70373 33.4844C9.21299 33.9791 9.82411 34.4738 10.4352 34.8695L36.9169 14.8854C36.6114 14.1928 36.3058 13.5003 35.8984 12.9067Z" fill="#63D1BB"/>
</svg>
